<?xml version="1.0" encoding="UTF-8" standalone="no"?><!-- Generator: Gravit.io --><svg xmlns="http://www.w3.org/2000/svg" xmlns:xlink="http://www.w3.org/1999/xlink" style="isolation:isolate" viewBox="0 0 800 800" width="800pt" height="800pt"><defs><clipPath id="_clipPath_u6QwjNM42p6Cs9OtqEpT9UAW5VbSVtLP"><rect width="800" height="800"/></clipPath></defs><g clip-path="url(#_clipPath_u6QwjNM42p6Cs9OtqEpT9UAW5VbSVtLP)"><linearGradient id="_lgradient_0" x1="0.07798914358637954" y1="0.7626730535135551" x2="0.9321559542943454" y2="0.24567735229557652" gradientTransform="matrix(800.257,0,0,800.257,0,0)" gradientUnits="userSpaceOnUse"><stop offset="0%" stop-opacity="1" style="stop-color:rgb(200,11,200)"/><stop offset="40.869565217391305%" stop-opacity="1" style="stop-color:rgb(242,164,19)"/><stop offset="99.1304347826087%" stop-opacity="1" style="stop-color:rgb(242,81,22)"/></linearGradient><circle vector-effect="non-scaling-stroke" cx="400.12843229009616" cy="400.1284322900963" r="400.12843229009616" fill="url(#_lgradient_0)"/><linearGradient id="_lgradient_1" x1="0" y1="0.5" x2="1" y2="0.5" gradientTransform="matrix(708.624,-384.884,394.775,726.836,-115.579,229.152)" gradientUnits="userSpaceOnUse"><stop offset="0%" stop-opacity="1" style="stop-color:rgb(149,12,140)"/><stop offset="99.1304347826087%" stop-opacity="1" style="stop-color:rgb(241,79,28)"/></linearGradient><path d=" M 480.515 105.975 L 480.261 113.889 C 486.085 110.726 494.223 106.071 491.06 100.247 L 486.764 92.338 C 483.601 86.515 476.315 84.358 470.492 87.521 L 154.142 259.344 C 148.319 262.506 146.162 269.792 149.325 275.616 L 153.62 283.525 C 156.783 289.348 165.118 285.056 170.942 281.893 L 174.839 289.069 C 213.291 359.865 287.989 429.954 365.239 436.011 C 328.101 504.411 347.569 607.088 385.8 677.476 L 377.891 681.772 C 372.067 684.935 374.781 690.713 377.944 696.536 L 386.058 711.475 C 389.221 717.299 392.689 712.426 398.512 709.263 L 714.862 537.44 C 720.685 534.277 726.66 534.021 723.497 528.198 L 715.384 513.259 C 712.221 507.435 704.457 504.4 698.634 507.563 L 695.119 509.472 C 656.667 438.676 581.015 366.829 503.765 360.772 C 540.903 292.372 518.745 176.362 480.515 105.975 Z  M 398.512 254.552 L 320.726 218.659 C 390.515 296.811 457.127 164.984 373.704 209.867 C 297.55 256.833 432.995 357.082 398.512 254.552 Z " fill="url(#_lgradient_1)"/><path d=" M 415.647 84.911 L 415.394 92.825 C 421.217 89.662 429.355 85.007 426.192 79.183 L 421.897 71.275 C 418.734 65.451 411.448 63.294 405.624 66.457 L 89.275 238.28 C 83.451 241.443 81.294 248.729 84.457 254.552 L 88.753 262.461 C 91.916 268.284 100.251 263.993 106.074 260.83 L 109.972 268.006 C 148.424 338.801 223.122 408.89 300.371 414.948 C 263.234 483.348 282.702 586.025 320.932 656.412 L 313.023 660.708 C 307.2 663.871 309.914 669.649 313.077 675.473 L 321.191 690.411 C 324.354 696.235 327.821 691.362 333.645 688.199 L 649.994 516.376 C 655.818 513.213 661.793 512.957 658.63 507.134 L 650.516 492.195 C 647.353 486.372 639.59 483.336 633.766 486.499 L 630.251 488.408 C 591.799 417.613 516.147 345.766 438.897 339.708 C 476.036 271.308 453.878 155.299 415.647 84.911 Z  M 147.867 237.208 L 373.214 115.735 C 443.003 193.887 441.602 311.355 358.18 356.238 C 282.025 403.205 182.35 339.737 147.867 237.208 Z  M 588.072 511.318 L 355.203 637.798 C 306.702 548.5 318.969 432.158 381.089 398.418 C 443.21 364.678 539.57 422.019 588.072 511.318 Z " fill="rgb(255,250,233)"/></g></svg>