<svg version="1" xmlns="http://www.w3.org/2000/svg" width="933.333" height="933.333" viewBox="0 0 700.000000 700.000000"><path d="M327 1.1C287.9 3.7 245.4 14 210.5 29.5c-10.5 4.7-26.4 12.6-28.4 14.2-.3.2 10.5 18.5 23.9 40.7l24.4 40.4 5.5-2.8c3.1-1.5 31.5-16.8 63.1-33.9 61.6-33.3 61.8-33.4 67.4-29 3.4 2.7 7.9 11.4 7.1 13.9-.3 1.1-1.9 3-3.6 4.4l-3 2.5 2.5 5c3.6 7 9.9 23.2 14.5 36.9 15.6 46.6 20.7 98.3 13.5 136.3-2 10.6-6.8 25.7-10.5 33.1l-2.9 5.7 3.8.6c19.4 3.2 31.3 6.6 45.7 13.4 41.9 19.8 84.4 59.8 111.1 104.7 5.2 8.8 7.2 11.3 8.4 10.8 3.3-1.5 8.8-1.5 11.6-.1 3 1.6 12.4 16.7 12.4 20 0 1.1-2.6 3-7.2 5.3-13 6.5-272.3 147.5-282.2 153.4l-3.9 2.4-2.1-2.7c-3.6-4.5-10.6-19.1-10.6-21.9 0-2.2 1-3.4 4.3-5.5 2.3-1.5 4.4-2.9 4.7-3.1.2-.2-.7-2.4-2.2-5-4.2-7.6-14.3-31.8-18.1-43.7-17.4-53.9-19.2-101.7-5.6-143.7l3.2-9.6-3-4.8c-2.9-4.8-3-4.9-12.9-7.4-24.5-6.4-48.9-19.2-73.4-38.6-11.4-9-32.6-30.5-42.7-43.1-8.8-10.9-22.6-31.4-28.7-42.6-2-3.7-3.8-6.7-4-6.7-.2 0-2 .7-4.1 1.6-2 .8-5.1 1.4-6.9 1.2-2.7-.3-3.5-1.1-6.5-7-3-6.1-3.2-6.9-2.1-10.3 1.5-4.4 1.3-4.4 36.5-23.5 15.4-8.4 28.2-15.5 28.5-15.7.2-.2-.2-1.4-1-2.6-.7-1.2-9.4-15.7-19.3-32.2-9.9-16.5-18.4-30.4-18.9-31-1.9-2.1-24.8 24.4-38.7 45C6.2 234-12.5 332.8 8.6 426.7c16.5 73.7 56.2 139.7 113.5 188.9 65.9 56.6 151.3 86.9 236.9 84.1 27.9-.9 44.1-3.1 71.3-9.4 12.7-3 15.7-4 15.2-5.2-.3-.8-12.1-20.6-26.2-44s-25.8-42.9-26-43.3c-.2-.3 6.5-4.4 14.9-9.1 30.9-17 75.4-40.7 76.3-40.7.6 0 4.6 6 8.9 13.3 16.9 28.1 47.8 79.2 48.5 80 .4.4 5.9-2.9 12.2-7.5 81.6-58.8 133-147 144.1-247.3 1.7-15.4 1.7-59.6 0-73.5-8.5-69.5-32.9-128.8-74.8-181.5-10.9-13.7-33.4-36.8-47.9-49C506.5 24.2 417.7-4.9 327 1.1z"/><path d="M314 108.4c-6.3 3.5-24.5 13.4-40.5 22-15.9 8.7-29.2 15.9-29.4 16.2-.2.2 1.5 3.5 3.8 7.3 2.2 3.8 4.1 7.3 4.1 7.8 0 .9-2.5 2.2-45.5 25.8-37.3 20.3-45.6 24.8-45.9 24.4-.1-.2-2.2-3.7-4.7-7.7-2.4-3.9-4.7-7.2-5.2-7.2-.6 0-19 9.4-20.5 10.6-.6.4 7 19.9 10.5 26.9 1.9 3.8 7.8 13.5 13.1 21.5 16.9 25.6 40.2 46.6 64.5 58 18.8 8.8 31.6 11.5 51.1 10.7 18.2-.7 28.4-3.9 46.5-14.6 22.4-13.3 36.9-30.2 46.1-53.8 6.2-15.7 7.5-23.9 7.5-45.8 0-16.3-.3-20.5-2.3-29.5-6.2-27.5-17.4-51-34.4-71.8-3.3-3.9-6.2-7.2-6.6-7.2-.4.1-5.9 2.9-12.2 6.4zM354.5 341.4c-8.3 1.6-17.4 5.1-25.1 9.7-6.4 3.9-20.8 18.5-24.2 24.6l-2.2 4.1 5.2.7c2.9.3 6.5.8 8 1.1l2.8.5-2.9 5.7c-6.2 12.2-11.8 33.5-13.6 51.6l-.7 6.8-6.6-11.1c-4.2-7-6.9-10.6-7.4-9.8-.3.7-1.2 7.9-1.9 15.9-2.2 26 1.5 55.3 10.5 82.3 4.6 13.8 13.3 33.5 14.8 33.5 1.4 0 8.3-3.7 80.3-42.8 65.6-35.7 89.1-48.4 112.3-61 7.7-4.2 10.1-6 9.7-7.1-1.5-4-10.8-18.4-19.2-29.5-27.4-36.6-65.5-64.1-101.1-73.2-12.1-3.1-28.7-3.9-38.7-2zM260.8 363.7c.7.3 1.6.2 1.9-.1.4-.3-.2-.6-1.3-.5-1.1 0-1.4.3-.6.6z"/></svg>